<svg xmlns="http://www.w3.org/2000/svg" viewBox="0 0 24 24" aria-hidden="true" fill="currentColor">
  <path d="M12 .5C5.65.5.5 5.65.5 12a11.5 11.5 0 0 0 7.86 10.91c.58.11.79-.25.79-.56v-2.02c-3.2.7-3.88-1.36-3.88-1.36-.52-1.33-1.28-1.68-1.28-1.68-1.05-.71.08-.69.08-.69 1.16.08 1.77 1.19 1.77 1.19 1.03 1.77 2.71 1.26 3.37.96.1-.75.4-1.26.73-1.55-2.55-.29-5.24-1.27-5.24-5.66 0-1.25.45-2.28 1.18-3.08-.12-.29-.51-1.47.11-3.07 0 0 .97-.31 3.19 1.18a11.1 11.1 0 0 1 5.82 0c2.22-1.49 3.19-1.18 3.19-1.18.62 1.6.23 2.78.11 3.07.74.8 1.18 1.83 1.18 3.08 0 4.4-2.69 5.37-5.25 5.65.41.35.78 1.04.78 2.09v3.1c0 .31.21.67.8.56A11.5 11.5 0 0 0 23.5 12C23.5 5.65 18.35.5 12 .5Z"/>
</svg>