<?xml version="1.0" standalone="no"?>
<!DOCTYPE svg PUBLIC "-//W3C//DTD SVG 20010904//EN"
 "http://www.w3.org/TR/2001/REC-SVG-20010904/DTD/svg10.dtd">
<svg version="1.0" xmlns="http://www.w3.org/2000/svg"
 width="338.000000pt" height="313.000000pt" viewBox="0 0 338.000000 313.000000"
 preserveAspectRatio="xMidYMid meet">

<g transform="translate(0.000000,313.000000) scale(0.100000,-0.100000)"
fill="#000000" stroke="none">
<path d="M1650 3027 c-3 -3 -45 -8 -95 -11 -240 -16 -495 -111 -715 -264 -88
-61 -284 -260 -346 -352 -106 -155 -189 -346 -224 -520 -46 -228 -46 -392 0
-620 35 -174 117 -364 223 -520 72 -105 273 -304 377 -372 295 -194 605 -274
952 -246 240 20 471 103 688 246 105 69 306 268 377 372 106 156 188 347 223
521 86 419 4 815 -239 1159 -78 110 -252 279 -364 354 -200 133 -440 221 -647
240 -30 2 -89 7 -130 11 -41 4 -77 5 -80 2z m270 -132 c105 -17 273 -71 365
-117 386 -194 663 -564 730 -978 19 -122 19 -338 0 -460 -90 -553 -535 -997
-1099 -1095 -115 -20 -337 -20 -452 0 -491 86 -892 427 -1048 895 -46 139 -66
266 -66 430 0 346 108 634 336 894 192 220 481 382 765 430 115 19 351 20 469
1z"/>
<path d="M1770 1795 l0 -606 93 3 92 3 3 603 2 602 -95 0 -95 0 0 -605z"/>
<path d="M1464 2064 c3 -8 2 -12 -4 -9 -7 4 -10 -159 -10 -470 0 -512 0 -515
-53 -563 -14 -13 -42 -30 -64 -37 l-38 -13 -3 -86 -3 -86 43 0 c27 0 67 11
108 31 77 36 111 65 103 88 -4 13 -3 13 5 2 8 -11 16 -5 40 33 57 90 62 138
62 657 l0 469 -96 0 c-83 0 -95 -2 -90 -16z m173 -821 c-3 -10 -5 -4 -5 12 0
17 2 24 5 18 2 -7 2 -21 0 -30z m0 -80 c-3 -10 -5 -4 -5 12 0 17 2 24 5 18 2
-7 2 -21 0 -30z m-10 -65 c-3 -8 -6 -5 -6 6 -1 11 2 17 5 13 3 -3 4 -12 1 -19z"/>
<path d="M1048 1756 c-84 -57 -153 -108 -153 -114 0 -6 -4 -14 -9 -19 -5 -5
-6 -3 -2 5 13 23 -10 12 -39 -18 -22 -23 -30 -40 -29 -68 0 -67 -1 -67 232
-225 113 -78 129 -87 116 -65 -4 7 -3 8 5 4 6 -4 9 -11 6 -16 -6 -10 19 -20
50 -20 30 0 72 37 80 71 5 19 0 34 -20 57 -25 30 -54 45 -39 20 4 -7 3 -8 -5
-4 -6 4 -9 11 -6 16 3 4 -6 15 -20 24 -32 21 -41 20 -24 -1 13 -16 12 -17 -3
-4 -10 7 -16 17 -13 21 3 4 -31 31 -75 61 -44 29 -80 55 -80 58 1 4 52 41 116
84 63 43 112 82 109 87 -3 6 0 7 7 5 8 -3 24 6 37 19 45 47 6 126 -61 126 -18
0 -78 -34 -180 -104z m207 -516 c-3 -5 -12 -10 -18 -10 -7 0 -6 4 3 10 19 12
23 12 15 0z"/>
<path d="M2110 1840 c-13 -13 -20 -33 -20 -59 0 -38 19 -68 34 -53 4 4 6 1 4
-6 -3 -11 91 -82 199 -150 23 -15 43 -30 43 -34 0 -3 -16 -15 -36 -27 -19 -12
-33 -25 -29 -30 3 -5 0 -13 -6 -17 -8 -5 -9 -3 -4 6 5 8 3 11 -6 8 -8 -3 -13
-11 -11 -17 1 -7 -2 -10 -7 -6 -6 3 -35 -11 -66 -31 -54 -36 -70 -52 -40 -40
22 8 18 -2 -6 -15 -15 -8 -19 -8 -15 0 15 23 -13 10 -34 -16 -22 -29 -25 -88
-3 -88 6 0 15 -4 20 -9 5 -5 3 -6 -4 -2 -7 4 -13 3 -13 -3 0 -15 34 -31 66
-31 33 0 97 38 88 52 -4 6 -2 8 4 4 6 -3 47 19 92 51 47 33 76 59 69 63 -7 5
-5 9 6 13 9 4 13 3 10 -3 -11 -18 5 -10 64 29 35 24 63 52 71 70 13 31 6 86
-9 77 -5 -3 -8 2 -7 12 0 10 -6 16 -16 16 -10 -1 -16 2 -13 6 3 5 -8 18 -24
29 -33 24 -45 27 -35 9 4 -8 3 -10 -2 -5 -5 5 -9 14 -9 20 0 7 -8 11 -17 11
-10 -1 -16 3 -15 8 1 6 -52 48 -118 94 -130 90 -167 102 -205 64z m450 -354
c0 -2 -8 -10 -17 -17 -16 -13 -17 -12 -4 4 13 16 21 21 21 13z m-447 -161 c-3
-9 -8 -14 -10 -11 -3 3 -2 9 2 15 9 16 15 13 8 -4z"/>
</g>
</svg>
