<?xml version="1.0" encoding="UTF-8"?>
<svg version="1.1" xmlns="http://www.w3.org/2000/svg" width="32" height="32">
<path d="M0 0 C10.56 0 21.12 0 32 0 C32 10.56 32 21.12 32 32 C21.44 32 10.88 32 0 32 C0 21.44 0 10.88 0 0 Z " fill="#010101" transform="translate(0,0)"/>
<path d="M0 0 C1.134375 0.020625 2.26875 0.04125 3.4375 0.0625 C5.89605991 5.32572777 7.99926509 10.42941325 9.4375 16.0625 C7.1275 15.7325 4.8175 15.4025 2.4375 15.0625 C1.7775 12.7525 1.1175 10.4425 0.4375 8.0625 C-0.09875 9.196875 -0.635 10.33125 -1.1875 11.5 C-2.92992851 14.60879332 -3.18526269 14.95368154 -6.8125 16 C-7.72 16.020625 -8.6275 16.04125 -9.5625 16.0625 C-8.9364007 12.43634158 -7.94940533 9.21857632 -6.5625 5.8125 C-6.211875 4.94109375 -5.86125 4.0696875 -5.5 3.171875 C-3.97709964 -0.25465082 -4.09156536 0.07178185 0 0 Z " fill="#EDEDED" transform="translate(16.5625,3.9375)"/>
<path d="M0 0 C0.66 0.33 1.32 0.66 2 1 C2.40729228 3.32156597 2.74438677 5.6568787 3 8 C4.32 8.33 5.64 8.66 7 9 C6.01 9 5.02 9 4 9 C4.33 10.65 4.66 12.3 5 14 C3.35 15.32 1.7 16.64 0 18 C-0.33 16.68 -0.66 15.36 -1 14 C-1.99 14 -2.98 14 -4 14 C-4.185625 13.071875 -4.185625 13.071875 -4.375 12.125 C-4.87197356 9.80879168 -4.87197356 9.80879168 -7 8 C-6.401875 7.979375 -5.80375 7.95875 -5.1875 7.9375 C-2.56685398 7.09543384 -2.56685398 7.09543384 -1.25 3.4375 C-0.8375 2.303125 -0.425 1.16875 0 0 Z " fill="#1A1718" transform="translate(16,11)"/>
<path d="M0 0 C2.97 0 5.94 0 9 0 C7.92643531 4.29425875 7.4915227 4.74740471 4 7 C3.67 5.68 3.34 4.36 3 3 C2.01 3 1.02 3 0 3 C0 2.01 0 1.02 0 0 Z " fill="#BF3188" transform="translate(12,22)"/>
</svg>
